<svg width="20" height="15" viewBox="0 0 20 15" fill="none" xmlns="http://www.w3.org/2000/svg">
<path d="M14.95 12.4501C13.5255 13.5359 11.791 14.1374 10 14.1667C4.16671 14.1667 0.833374 7.50006 0.833374 7.50006C1.86995 5.56831 3.30765 3.88057 5.05004 2.55006M8.25004 1.03339C8.82365 0.899128 9.41093 0.832011 10 0.833395C15.8334 0.833395 19.1667 7.50006 19.1667 7.50006C18.6609 8.4464 18.0576 9.33734 17.3667 10.1584M11.7667 9.26673C11.5378 9.51235 11.2618 9.70936 10.9552 9.846C10.6485 9.98264 10.3175 10.0561 9.98178 10.062C9.64611 10.068 9.31268 10.0062 9.00138 9.88047C8.69009 9.75473 8.40731 9.56759 8.16991 9.33019C7.93252 9.09279 7.74537 8.81001 7.61963 8.49872C7.4939 8.18743 7.43215 7.854 7.43807 7.51832C7.44399 7.18264 7.51746 6.8516 7.6541 6.54493C7.79074 6.23827 7.98775 5.96227 8.23337 5.7334" stroke="#94A3B8" stroke-width="1.5" stroke-linecap="round" stroke-linejoin="round"/>
</svg>
